<?xml version="1.0" encoding="utf-8"?>
<!-- Generator: Adobe Illustrator 23.0.6, SVG Export Plug-In . SVG Version: 6.00 Build 0)  -->
<svg version="1.1" id="Capa_1" xmlns="http://www.w3.org/2000/svg" xmlns:xlink="http://www.w3.org/1999/xlink" x="0px" y="0px"
	 viewBox="0 0 128 128" style="enable-background:new 0 0 128 128;" xml:space="preserve">
<style type="text/css">
	.st0{fill:url(#SVGID_1_);}
	.st1{fill:url(#SVGID_2_);}
	.st2{fill:url(#SVGID_3_);}
	.st3{fill:url(#SVGID_4_);}
	.st4{fill:#FFFFFF;}
	.st5{fill-rule:evenodd;clip-rule:evenodd;fill:#9C5C8F;}
	.st6{fill-rule:evenodd;clip-rule:evenodd;fill:#FFFFFF;}
	.st7{fill:url(#SVGID_5_);}
	.st8{fill:url(#SVGID_6_);}
	.st9{fill:#22B573;}
	.st10{fill:none;stroke:#000000;stroke-width:20;stroke-linecap:round;stroke-miterlimit:10;}
	.st11{fill:#3EBE85;}
	.st12{fill:#191919;}
	.st13{fill:none;stroke:#000000;stroke-width:42;stroke-linecap:round;stroke-miterlimit:10;}
	.st14{clip-path:url(#SVGID_8_);}
	.st15{fill:url(#SVGID_9_);}
	.st16{fill:url(#SVGID_10_);}
	.st17{fill:url(#SVGID_11_);}
	.st18{fill:url(#SVGID_12_);}
	.st19{fill:#333333;}
	.st20{fill:url(#SVGID_13_);}
	.st21{fill:url(#SVGID_14_);}
	.st22{fill:url(#SVGID_15_);}
	.st23{fill:url(#SVGID_16_);}
	.st24{fill:url(#SVGID_17_);}
	.st25{fill:url(#SVGID_18_);}
	.st26{fill:url(#SVGID_19_);}
	.st27{fill:url(#SVGID_20_);}
	.st28{fill:url(#SVGID_21_);}
	.st29{fill:url(#SVGID_22_);}
	.st30{fill:url(#SVGID_23_);}
	.st31{fill:url(#SVGID_24_);}
	.st32{fill:#3333CC;}
	.st33{fill:url(#SVGID_25_);}
	.st34{fill:url(#SVGID_26_);}
	.st35{fill:url(#SVGID_27_);}
	.st36{fill:url(#SVGID_28_);}
	.st37{fill:url(#SVGID_29_);}
	.st38{fill:url(#SVGID_30_);}
	.st39{fill:url(#SVGID_31_);}
	.st40{fill:url(#SVGID_32_);}
	.st41{fill:url(#SVGID_33_);}
	.st42{fill:url(#SVGID_34_);}
	.st43{fill:url(#SVGID_35_);}
	.st44{fill:url(#SVGID_36_);}
	.st45{fill:url(#SVGID_37_);}
	.st46{fill:url(#SVGID_38_);}
	.st47{fill:url(#SVGID_39_);}
	.st48{fill:url(#SVGID_40_);}
	.st49{fill:url(#SVGID_41_);}
	.st50{fill:url(#SVGID_42_);}
	.st51{fill:url(#SVGID_43_);}
	.st52{fill-rule:evenodd;clip-rule:evenodd;}
	.st53{fill:url(#SVGID_44_);}
	.st54{fill-rule:evenodd;clip-rule:evenodd;fill:url(#SVGID_45_);}
	.st55{fill-rule:evenodd;clip-rule:evenodd;fill:url(#SVGID_46_);}
	.st56{fill-rule:evenodd;clip-rule:evenodd;fill:url(#SVGID_47_);}
	.st57{fill-rule:evenodd;clip-rule:evenodd;fill:url(#SVGID_48_);}
	.st58{fill-rule:evenodd;clip-rule:evenodd;fill:url(#SVGID_49_);}
	.st59{fill:url(#SVGID_50_);}
	.st60{fill:url(#SVGID_51_);}
	.st61{fill:url(#SVGID_52_);}
	.st62{fill:url(#SVGID_53_);}
	.st63{fill:none;stroke:#999999;stroke-width:21;stroke-linecap:round;stroke-miterlimit:10;}
	.st64{fill:url(#SVGID_54_);}
	.st65{clip-path:url(#SVGID_56_);fill-rule:evenodd;clip-rule:evenodd;fill:#FF9055;}
	.st66{clip-path:url(#SVGID_56_);fill-rule:evenodd;clip-rule:evenodd;fill:#FF9054;}
	.st67{clip-path:url(#SVGID_56_);fill-rule:evenodd;clip-rule:evenodd;fill:#FF9153;}
	.st68{clip-path:url(#SVGID_56_);fill-rule:evenodd;clip-rule:evenodd;fill:#FF9152;}
	.st69{clip-path:url(#SVGID_56_);fill-rule:evenodd;clip-rule:evenodd;fill:#FF9151;}
	.st70{clip-path:url(#SVGID_56_);fill-rule:evenodd;clip-rule:evenodd;fill:#FF9250;}
	.st71{clip-path:url(#SVGID_56_);fill-rule:evenodd;clip-rule:evenodd;fill:#FF924F;}
	.st72{clip-path:url(#SVGID_56_);fill-rule:evenodd;clip-rule:evenodd;fill:#FF934E;}
	.st73{clip-path:url(#SVGID_56_);fill-rule:evenodd;clip-rule:evenodd;fill:#FF934D;}
	.st74{clip-path:url(#SVGID_56_);fill-rule:evenodd;clip-rule:evenodd;fill:#FF934C;}
	.st75{clip-path:url(#SVGID_56_);fill-rule:evenodd;clip-rule:evenodd;fill:#FF944B;}
	.st76{clip-path:url(#SVGID_56_);fill-rule:evenodd;clip-rule:evenodd;fill:#FF944A;}
	.st77{clip-path:url(#SVGID_56_);fill-rule:evenodd;clip-rule:evenodd;fill:#FF9449;}
	.st78{clip-path:url(#SVGID_56_);fill-rule:evenodd;clip-rule:evenodd;fill:#FF9548;}
	.st79{clip-path:url(#SVGID_56_);fill-rule:evenodd;clip-rule:evenodd;fill:#FF9547;}
	.st80{clip-path:url(#SVGID_56_);fill-rule:evenodd;clip-rule:evenodd;fill:#FF9546;}
	.st81{clip-path:url(#SVGID_56_);fill-rule:evenodd;clip-rule:evenodd;fill:#FF9645;}
	.st82{clip-path:url(#SVGID_56_);fill-rule:evenodd;clip-rule:evenodd;fill:#FF9644;}
	.st83{clip-path:url(#SVGID_56_);fill-rule:evenodd;clip-rule:evenodd;fill:#FF9643;}
	.st84{clip-path:url(#SVGID_56_);fill-rule:evenodd;clip-rule:evenodd;fill:#FF9742;}
	.st85{clip-path:url(#SVGID_56_);fill-rule:evenodd;clip-rule:evenodd;fill:#FF9741;}
	.st86{clip-path:url(#SVGID_56_);fill-rule:evenodd;clip-rule:evenodd;fill:#FF9840;}
	.st87{clip-path:url(#SVGID_56_);fill-rule:evenodd;clip-rule:evenodd;fill:#FF983F;}
	.st88{clip-path:url(#SVGID_56_);fill-rule:evenodd;clip-rule:evenodd;fill:#FF983E;}
	.st89{clip-path:url(#SVGID_56_);fill-rule:evenodd;clip-rule:evenodd;fill:#FF993D;}
	.st90{clip-path:url(#SVGID_56_);fill-rule:evenodd;clip-rule:evenodd;fill:#FF993C;}
	.st91{clip-path:url(#SVGID_56_);fill-rule:evenodd;clip-rule:evenodd;fill:#FF993B;}
	.st92{clip-path:url(#SVGID_56_);fill-rule:evenodd;clip-rule:evenodd;fill:#FF9A3A;}
	.st93{clip-path:url(#SVGID_56_);fill-rule:evenodd;clip-rule:evenodd;fill:#FF9A39;}
	.st94{clip-path:url(#SVGID_56_);fill-rule:evenodd;clip-rule:evenodd;fill:#FF9A38;}
	.st95{clip-path:url(#SVGID_56_);fill-rule:evenodd;clip-rule:evenodd;fill:#FF9B37;}
	.st96{clip-path:url(#SVGID_56_);fill-rule:evenodd;clip-rule:evenodd;fill:#FF9B36;}
	.st97{clip-path:url(#SVGID_56_);fill-rule:evenodd;clip-rule:evenodd;fill:#FF9B35;}
	.st98{clip-path:url(#SVGID_56_);fill-rule:evenodd;clip-rule:evenodd;fill:#FF9C34;}
	.st99{clip-path:url(#SVGID_56_);fill-rule:evenodd;clip-rule:evenodd;fill:#FF9C33;}
	.st100{clip-path:url(#SVGID_56_);fill-rule:evenodd;clip-rule:evenodd;fill:#FF9D32;}
	.st101{clip-path:url(#SVGID_56_);fill-rule:evenodd;clip-rule:evenodd;fill:#FF9D31;}
	.st102{clip-path:url(#SVGID_56_);fill-rule:evenodd;clip-rule:evenodd;fill:#FF9D30;}
	.st103{clip-path:url(#SVGID_56_);fill-rule:evenodd;clip-rule:evenodd;fill:#FF9E2F;}
	.st104{clip-path:url(#SVGID_56_);fill-rule:evenodd;clip-rule:evenodd;fill:#FF9E2E;}
	.st105{clip-path:url(#SVGID_56_);fill-rule:evenodd;clip-rule:evenodd;fill:#FF9E2D;}
	.st106{clip-path:url(#SVGID_56_);fill-rule:evenodd;clip-rule:evenodd;fill:#FF9F2C;}
	.st107{clip-path:url(#SVGID_56_);fill-rule:evenodd;clip-rule:evenodd;fill:#FF9F2B;}
	.st108{clip-path:url(#SVGID_56_);fill-rule:evenodd;clip-rule:evenodd;fill:#FF9F29;}
	.st109{clip-path:url(#SVGID_56_);fill-rule:evenodd;clip-rule:evenodd;fill:#FFA028;}
	.st110{clip-path:url(#SVGID_56_);fill-rule:evenodd;clip-rule:evenodd;fill:#FFA027;}
	.st111{clip-path:url(#SVGID_56_);fill-rule:evenodd;clip-rule:evenodd;fill:#FFA026;}
	.st112{clip-path:url(#SVGID_56_);fill-rule:evenodd;clip-rule:evenodd;fill:#FFA125;}
	.st113{clip-path:url(#SVGID_56_);fill-rule:evenodd;clip-rule:evenodd;fill:#FFA124;}
	.st114{clip-path:url(#SVGID_56_);fill-rule:evenodd;clip-rule:evenodd;fill:#FFA223;}
	.st115{clip-path:url(#SVGID_56_);fill-rule:evenodd;clip-rule:evenodd;fill:#FFA222;}
	.st116{clip-path:url(#SVGID_56_);fill-rule:evenodd;clip-rule:evenodd;fill:#FFA221;}
	.st117{clip-path:url(#SVGID_56_);fill-rule:evenodd;clip-rule:evenodd;fill:#FFA320;}
	.st118{clip-path:url(#SVGID_56_);fill-rule:evenodd;clip-rule:evenodd;fill:#FFA31F;}
	.st119{clip-path:url(#SVGID_56_);fill-rule:evenodd;clip-rule:evenodd;fill:#FFA31E;}
	.st120{clip-path:url(#SVGID_56_);fill-rule:evenodd;clip-rule:evenodd;fill:#FFA41D;}
	.st121{clip-path:url(#SVGID_56_);fill-rule:evenodd;clip-rule:evenodd;fill:#FFA41C;}
	.st122{clip-path:url(#SVGID_56_);fill-rule:evenodd;clip-rule:evenodd;fill:#FFA41B;}
	.st123{clip-path:url(#SVGID_56_);fill-rule:evenodd;clip-rule:evenodd;fill:#FFA51A;}
	.st124{clip-path:url(#SVGID_56_);fill-rule:evenodd;clip-rule:evenodd;fill:#FFA519;}
	.st125{clip-path:url(#SVGID_56_);fill-rule:evenodd;clip-rule:evenodd;fill:#FFA518;}
	.st126{clip-path:url(#SVGID_56_);fill-rule:evenodd;clip-rule:evenodd;fill:#FFA617;}
	.st127{clip-path:url(#SVGID_56_);fill-rule:evenodd;clip-rule:evenodd;fill:#FFA616;}
	.st128{clip-path:url(#SVGID_56_);fill-rule:evenodd;clip-rule:evenodd;fill:#FFA715;}
	.st129{clip-path:url(#SVGID_56_);fill-rule:evenodd;clip-rule:evenodd;fill:#FFA714;}
	.st130{clip-path:url(#SVGID_56_);fill-rule:evenodd;clip-rule:evenodd;fill:#FFA713;}
	.st131{clip-path:url(#SVGID_56_);fill-rule:evenodd;clip-rule:evenodd;fill:#FFA812;}
	.st132{clip-path:url(#SVGID_56_);fill-rule:evenodd;clip-rule:evenodd;fill:#FFA811;}
	.st133{clip-path:url(#SVGID_56_);fill-rule:evenodd;clip-rule:evenodd;fill:#FFA810;}
	.st134{clip-path:url(#SVGID_56_);fill-rule:evenodd;clip-rule:evenodd;fill:#FFA90F;}
	.st135{clip-path:url(#SVGID_56_);fill-rule:evenodd;clip-rule:evenodd;fill:#FFA90E;}
	.st136{clip-path:url(#SVGID_56_);fill-rule:evenodd;clip-rule:evenodd;fill:#FFA90D;}
	.st137{clip-path:url(#SVGID_56_);fill-rule:evenodd;clip-rule:evenodd;fill:#FFAA0C;}
	.st138{clip-path:url(#SVGID_56_);fill-rule:evenodd;clip-rule:evenodd;fill:#FFAA0B;}
	.st139{clip-path:url(#SVGID_56_);fill-rule:evenodd;clip-rule:evenodd;fill:#FFAA0A;}
	.st140{clip-path:url(#SVGID_56_);fill-rule:evenodd;clip-rule:evenodd;fill:#FFAB09;}
	.st141{clip-path:url(#SVGID_56_);fill-rule:evenodd;clip-rule:evenodd;fill:#FFAB08;}
	.st142{clip-path:url(#SVGID_56_);fill-rule:evenodd;clip-rule:evenodd;fill:#FFAC07;}
	.st143{clip-path:url(#SVGID_56_);fill-rule:evenodd;clip-rule:evenodd;fill:#FFAC06;}
	.st144{clip-path:url(#SVGID_56_);fill-rule:evenodd;clip-rule:evenodd;fill:#FFAC05;}
	.st145{clip-path:url(#SVGID_56_);fill-rule:evenodd;clip-rule:evenodd;fill:#FFAD04;}
	.st146{clip-path:url(#SVGID_56_);fill-rule:evenodd;clip-rule:evenodd;fill:#FFAD03;}
	.st147{clip-path:url(#SVGID_56_);fill-rule:evenodd;clip-rule:evenodd;fill:#FFAD02;}
	.st148{clip-path:url(#SVGID_56_);fill-rule:evenodd;clip-rule:evenodd;fill:#FFAE01;}
	.st149{clip-path:url(#SVGID_56_);fill-rule:evenodd;clip-rule:evenodd;fill:#FFAE00;}
	.st150{fill:#1A1A1A;}
	.st151{fill:#999999;}
	.st152{clip-path:url(#SVGID_58_);fill-rule:evenodd;clip-rule:evenodd;fill:#FF9055;}
	.st153{clip-path:url(#SVGID_58_);fill-rule:evenodd;clip-rule:evenodd;fill:#FF9054;}
	.st154{clip-path:url(#SVGID_58_);fill-rule:evenodd;clip-rule:evenodd;fill:#FF9153;}
	.st155{clip-path:url(#SVGID_58_);fill-rule:evenodd;clip-rule:evenodd;fill:#FF9152;}
	.st156{clip-path:url(#SVGID_58_);fill-rule:evenodd;clip-rule:evenodd;fill:#FF9151;}
	.st157{clip-path:url(#SVGID_58_);fill-rule:evenodd;clip-rule:evenodd;fill:#FF9250;}
	.st158{clip-path:url(#SVGID_58_);fill-rule:evenodd;clip-rule:evenodd;fill:#FF924F;}
	.st159{clip-path:url(#SVGID_58_);fill-rule:evenodd;clip-rule:evenodd;fill:#FF934E;}
	.st160{clip-path:url(#SVGID_58_);fill-rule:evenodd;clip-rule:evenodd;fill:#FF934D;}
	.st161{clip-path:url(#SVGID_58_);fill-rule:evenodd;clip-rule:evenodd;fill:#FF934C;}
	.st162{clip-path:url(#SVGID_58_);fill-rule:evenodd;clip-rule:evenodd;fill:#FF944B;}
	.st163{clip-path:url(#SVGID_58_);fill-rule:evenodd;clip-rule:evenodd;fill:#FF944A;}
	.st164{clip-path:url(#SVGID_58_);fill-rule:evenodd;clip-rule:evenodd;fill:#FF9449;}
	.st165{clip-path:url(#SVGID_58_);fill-rule:evenodd;clip-rule:evenodd;fill:#FF9548;}
	.st166{clip-path:url(#SVGID_58_);fill-rule:evenodd;clip-rule:evenodd;fill:#FF9547;}
	.st167{clip-path:url(#SVGID_58_);fill-rule:evenodd;clip-rule:evenodd;fill:#FF9546;}
	.st168{clip-path:url(#SVGID_58_);fill-rule:evenodd;clip-rule:evenodd;fill:#FF9645;}
	.st169{clip-path:url(#SVGID_58_);fill-rule:evenodd;clip-rule:evenodd;fill:#FF9644;}
	.st170{clip-path:url(#SVGID_58_);fill-rule:evenodd;clip-rule:evenodd;fill:#FF9643;}
	.st171{clip-path:url(#SVGID_58_);fill-rule:evenodd;clip-rule:evenodd;fill:#FF9742;}
	.st172{clip-path:url(#SVGID_58_);fill-rule:evenodd;clip-rule:evenodd;fill:#FF9741;}
	.st173{clip-path:url(#SVGID_58_);fill-rule:evenodd;clip-rule:evenodd;fill:#FF9840;}
	.st174{clip-path:url(#SVGID_58_);fill-rule:evenodd;clip-rule:evenodd;fill:#FF983F;}
	.st175{clip-path:url(#SVGID_58_);fill-rule:evenodd;clip-rule:evenodd;fill:#FF983E;}
	.st176{clip-path:url(#SVGID_58_);fill-rule:evenodd;clip-rule:evenodd;fill:#FF993D;}
	.st177{clip-path:url(#SVGID_58_);fill-rule:evenodd;clip-rule:evenodd;fill:#FF993C;}
	.st178{clip-path:url(#SVGID_58_);fill-rule:evenodd;clip-rule:evenodd;fill:#FF993B;}
	.st179{clip-path:url(#SVGID_58_);fill-rule:evenodd;clip-rule:evenodd;fill:#FF9A3A;}
	.st180{clip-path:url(#SVGID_58_);fill-rule:evenodd;clip-rule:evenodd;fill:#FF9A39;}
	.st181{clip-path:url(#SVGID_58_);fill-rule:evenodd;clip-rule:evenodd;fill:#FF9A38;}
	.st182{clip-path:url(#SVGID_58_);fill-rule:evenodd;clip-rule:evenodd;fill:#FF9B37;}
	.st183{clip-path:url(#SVGID_58_);fill-rule:evenodd;clip-rule:evenodd;fill:#FF9B36;}
	.st184{clip-path:url(#SVGID_58_);fill-rule:evenodd;clip-rule:evenodd;fill:#FF9B35;}
	.st185{clip-path:url(#SVGID_58_);fill-rule:evenodd;clip-rule:evenodd;fill:#FF9C34;}
	.st186{clip-path:url(#SVGID_58_);fill-rule:evenodd;clip-rule:evenodd;fill:#FF9C33;}
	.st187{clip-path:url(#SVGID_58_);fill-rule:evenodd;clip-rule:evenodd;fill:#FF9D32;}
	.st188{clip-path:url(#SVGID_58_);fill-rule:evenodd;clip-rule:evenodd;fill:#FF9D31;}
	.st189{clip-path:url(#SVGID_58_);fill-rule:evenodd;clip-rule:evenodd;fill:#FF9D30;}
	.st190{clip-path:url(#SVGID_58_);fill-rule:evenodd;clip-rule:evenodd;fill:#FF9E2F;}
	.st191{clip-path:url(#SVGID_58_);fill-rule:evenodd;clip-rule:evenodd;fill:#FF9E2E;}
	.st192{clip-path:url(#SVGID_58_);fill-rule:evenodd;clip-rule:evenodd;fill:#FF9E2D;}
	.st193{clip-path:url(#SVGID_58_);fill-rule:evenodd;clip-rule:evenodd;fill:#FF9F2C;}
	.st194{clip-path:url(#SVGID_58_);fill-rule:evenodd;clip-rule:evenodd;fill:#FF9F2B;}
	.st195{clip-path:url(#SVGID_58_);fill-rule:evenodd;clip-rule:evenodd;fill:#FF9F29;}
	.st196{clip-path:url(#SVGID_58_);fill-rule:evenodd;clip-rule:evenodd;fill:#FFA028;}
	.st197{clip-path:url(#SVGID_58_);fill-rule:evenodd;clip-rule:evenodd;fill:#FFA027;}
	.st198{clip-path:url(#SVGID_58_);fill-rule:evenodd;clip-rule:evenodd;fill:#FFA026;}
	.st199{clip-path:url(#SVGID_58_);fill-rule:evenodd;clip-rule:evenodd;fill:#FFA125;}
	.st200{clip-path:url(#SVGID_58_);fill-rule:evenodd;clip-rule:evenodd;fill:#FFA124;}
	.st201{clip-path:url(#SVGID_58_);fill-rule:evenodd;clip-rule:evenodd;fill:#FFA223;}
	.st202{clip-path:url(#SVGID_58_);fill-rule:evenodd;clip-rule:evenodd;fill:#FFA222;}
	.st203{clip-path:url(#SVGID_58_);fill-rule:evenodd;clip-rule:evenodd;fill:#FFA221;}
	.st204{clip-path:url(#SVGID_58_);fill-rule:evenodd;clip-rule:evenodd;fill:#FFA320;}
	.st205{clip-path:url(#SVGID_58_);fill-rule:evenodd;clip-rule:evenodd;fill:#FFA31F;}
	.st206{clip-path:url(#SVGID_58_);fill-rule:evenodd;clip-rule:evenodd;fill:#FFA31E;}
	.st207{clip-path:url(#SVGID_58_);fill-rule:evenodd;clip-rule:evenodd;fill:#FFA41D;}
	.st208{clip-path:url(#SVGID_58_);fill-rule:evenodd;clip-rule:evenodd;fill:#FFA41C;}
	.st209{clip-path:url(#SVGID_58_);fill-rule:evenodd;clip-rule:evenodd;fill:#FFA41B;}
	.st210{clip-path:url(#SVGID_58_);fill-rule:evenodd;clip-rule:evenodd;fill:#FFA51A;}
	.st211{clip-path:url(#SVGID_58_);fill-rule:evenodd;clip-rule:evenodd;fill:#FFA519;}
	.st212{clip-path:url(#SVGID_58_);fill-rule:evenodd;clip-rule:evenodd;fill:#FFA518;}
	.st213{clip-path:url(#SVGID_58_);fill-rule:evenodd;clip-rule:evenodd;fill:#FFA617;}
	.st214{clip-path:url(#SVGID_58_);fill-rule:evenodd;clip-rule:evenodd;fill:#FFA616;}
	.st215{clip-path:url(#SVGID_58_);fill-rule:evenodd;clip-rule:evenodd;fill:#FFA715;}
	.st216{clip-path:url(#SVGID_58_);fill-rule:evenodd;clip-rule:evenodd;fill:#FFA714;}
	.st217{clip-path:url(#SVGID_58_);fill-rule:evenodd;clip-rule:evenodd;fill:#FFA713;}
	.st218{clip-path:url(#SVGID_58_);fill-rule:evenodd;clip-rule:evenodd;fill:#FFA812;}
	.st219{clip-path:url(#SVGID_58_);fill-rule:evenodd;clip-rule:evenodd;fill:#FFA811;}
	.st220{clip-path:url(#SVGID_58_);fill-rule:evenodd;clip-rule:evenodd;fill:#FFA810;}
	.st221{clip-path:url(#SVGID_58_);fill-rule:evenodd;clip-rule:evenodd;fill:#FFA90F;}
	.st222{clip-path:url(#SVGID_58_);fill-rule:evenodd;clip-rule:evenodd;fill:#FFA90E;}
	.st223{clip-path:url(#SVGID_58_);fill-rule:evenodd;clip-rule:evenodd;fill:#FFA90D;}
	.st224{clip-path:url(#SVGID_58_);fill-rule:evenodd;clip-rule:evenodd;fill:#FFAA0C;}
	.st225{clip-path:url(#SVGID_58_);fill-rule:evenodd;clip-rule:evenodd;fill:#FFAA0B;}
	.st226{clip-path:url(#SVGID_58_);fill-rule:evenodd;clip-rule:evenodd;fill:#FFAA0A;}
	.st227{clip-path:url(#SVGID_58_);fill-rule:evenodd;clip-rule:evenodd;fill:#FFAB09;}
	.st228{clip-path:url(#SVGID_58_);fill-rule:evenodd;clip-rule:evenodd;fill:#FFAB08;}
	.st229{clip-path:url(#SVGID_58_);fill-rule:evenodd;clip-rule:evenodd;fill:#FFAC07;}
	.st230{clip-path:url(#SVGID_58_);fill-rule:evenodd;clip-rule:evenodd;fill:#FFAC06;}
	.st231{clip-path:url(#SVGID_58_);fill-rule:evenodd;clip-rule:evenodd;fill:#FFAC05;}
	.st232{clip-path:url(#SVGID_58_);fill-rule:evenodd;clip-rule:evenodd;fill:#FFAD04;}
	.st233{clip-path:url(#SVGID_58_);fill-rule:evenodd;clip-rule:evenodd;fill:#FFAD03;}
	.st234{clip-path:url(#SVGID_58_);fill-rule:evenodd;clip-rule:evenodd;fill:#FFAD02;}
	.st235{clip-path:url(#SVGID_58_);fill-rule:evenodd;clip-rule:evenodd;fill:#FFAE01;}
	.st236{clip-path:url(#SVGID_58_);fill-rule:evenodd;clip-rule:evenodd;fill:#FFAE00;}
	.st237{fill:url(#SVGID_59_);}
	.st238{fill:url(#SVGID_60_);}
	.st239{fill:url(#SVGID_61_);}
	.st240{fill:url(#SVGID_62_);}
	.st241{fill:url(#SVGID_63_);}
	.st242{fill:url(#SVGID_64_);}
	.st243{fill:url(#SVGID_65_);}
	.st244{fill:url(#SVGID_66_);}
	.st245{fill:url(#SVGID_67_);}
	.st246{fill:url(#SVGID_68_);}
	.st247{fill:url(#SVGID_69_);}
	.st248{fill:url(#SVGID_70_);}
	.st249{fill:url(#SVGID_71_);}
	.st250{fill:url(#SVGID_72_);}
	.st251{fill:url(#SVGID_73_);}
	.st252{fill:url(#SVGID_74_);}
	.st253{fill:url(#SVGID_75_);}
	.st254{fill:url(#SVGID_76_);}
	.st255{fill:url(#SVGID_77_);}
	.st256{fill:url(#SVGID_78_);}
	.st257{fill:url(#SVGID_79_);}
	.st258{fill:url(#SVGID_80_);}
	.st259{fill:url(#SVGID_81_);}
	.st260{fill:url(#SVGID_82_);}
	.st261{fill:url(#SVGID_83_);}
	.st262{fill:url(#SVGID_84_);}
	.st263{fill:url(#SVGID_85_);}
	.st264{fill:url(#SVGID_86_);}
	.st265{fill:url(#SVGID_87_);}
	.st266{fill:url(#SVGID_88_);}
	.st267{fill:url(#SVGID_89_);}
	.st268{fill:url(#SVGID_90_);}
	.st269{fill:url(#SVGID_91_);}
	.st270{fill:url(#SVGID_92_);}
	.st271{fill:url(#SVGID_93_);}
	.st272{fill:url(#SVGID_94_);}
	.st273{fill:url(#SVGID_95_);}
	.st274{fill:url(#SVGID_96_);}
	.st275{fill:url(#SVGID_97_);}
	.st276{fill:url(#SVGID_98_);}
</style>
<linearGradient id="SVGID_1_" gradientUnits="userSpaceOnUse" x1="-0.9658" y1="63.8559" x2="128.3218" y2="63.8559">
	<stop  offset="0" style="stop-color:#FF9055"/>
	<stop  offset="0.9944" style="stop-color:#FFAE00"/>
</linearGradient>
<rect x="-0.97" y="-0.61" style="fill-rule:evenodd;clip-rule:evenodd;fill:url(#SVGID_1_);" width="129.29" height="128.94"/>
<g>
	<g>
		<path class="st6" d="M43.07,115.62c-0.36,0.12-0.58,0.45-0.77,0.75c-0.48,0.77-0.62,1.8-0.23,2.64c0.1,0.22,0.27,0.46,0.52,0.5
			c0.27,0.05,0.53-0.11,0.73-0.28c0.44-0.38,0.66-0.94,0.76-1.5c0.12-0.63,0.06-1.33-0.31-1.88
			C43.61,115.63,43.32,115.53,43.07,115.62z"/>
		<path class="st6" d="M49.03,115.62c-0.39,0.14-0.62,0.51-0.83,0.85c-0.44,0.77-0.55,1.77-0.15,2.58c0.11,0.22,0.3,0.45,0.57,0.46
			c0.29,0.01,0.54-0.17,0.75-0.37c0.44-0.44,0.64-1.06,0.71-1.66c0.07-0.57-0.02-1.17-0.35-1.65
			C49.58,115.63,49.29,115.53,49.03,115.62z"/>
		<path class="st6" d="M52.9,113.9c0.01-0.62-0.25-1.24-0.71-1.66c-0.4-0.37-0.95-0.58-1.5-0.56c-6.32,0-12.65,0-18.97,0
			c-0.84,0-1.64,0.55-1.96,1.32c-0.15,0.33-0.18,0.69-0.17,1.05c0,2.37,0,4.75,0,7.12c0.01,1.09,0.96,2.07,2.05,2.1
			c3.03,0.02,6.07-0.01,9.1,0.02c1.38,0.74,2.74,1.52,4.12,2.28c-0.31-0.76-0.62-1.53-0.93-2.29c2.31,0,4.61,0.01,6.92,0
			c1.09-0.03,2.05-1.01,2.06-2.1C52.91,118.75,52.9,116.32,52.9,113.9z M39.13,121.32c0.02,0.35-0.15,0.78-0.53,0.87
			c-0.36,0.08-0.69-0.16-0.91-0.41c-1.03-1.11-1.62-2.55-2.04-3.99c-0.43,0.84-0.85,1.68-1.27,2.53c-0.29,0.57-0.59,1.16-1.06,1.61
			c-0.2,0.19-0.52,0.37-0.78,0.17c-0.38-0.33-0.47-0.86-0.63-1.31c-0.61-2.1-0.96-4.27-1.31-6.43c-0.08-0.36,0.07-0.79,0.43-0.93
			c0.29-0.11,0.66-0.12,0.91,0.09c0.17,0.15,0.22,0.39,0.25,0.61c0.25,1.67,0.54,3.33,0.95,4.97c0.69-1.31,1.38-2.62,2.07-3.93
			c0.1-0.19,0.22-0.38,0.41-0.5c0.25-0.16,0.63-0.15,0.84,0.08c0.18,0.19,0.24,0.44,0.28,0.69c0.21,1.08,0.48,2.16,0.89,3.18
			c0.17-1.55,0.39-3.12,0.95-4.58c0.13-0.29,0.24-0.61,0.45-0.86c0.35-0.37,1.02-0.25,1.27,0.17c0.14,0.22,0.15,0.52,0.04,0.75
			c-0.49,0.96-0.69,2.03-0.88,3.08C39.24,118.55,39.06,119.93,39.13,121.32z M45.12,119.49c-0.29,0.53-0.66,1.04-1.18,1.35
			c-0.77,0.47-1.81,0.41-2.55-0.08c-0.6-0.41-0.93-1.1-1.07-1.79c-0.27-1.57,0.19-3.31,1.38-4.41c0.34-0.29,0.76-0.49,1.21-0.55
			c0.74-0.09,1.55,0.16,2.05,0.72c0.41,0.47,0.64,1.07,0.72,1.69C45.81,117.47,45.62,118.56,45.12,119.49z M51.11,119.46
			c-0.29,0.55-0.67,1.07-1.21,1.39c-0.74,0.44-1.72,0.4-2.45-0.03c-0.5-0.3-0.83-0.81-1.02-1.34c-0.52-1.64-0.08-3.56,1.12-4.8
			c0.36-0.35,0.83-0.6,1.33-0.66c0.73-0.09,1.52,0.13,2.02,0.68c0.46,0.49,0.7,1.15,0.77,1.81
			C51.78,117.51,51.59,118.56,51.11,119.46z"/>
	</g>
	<path class="st6" d="M56.83,114.23c0.63-0.14,1.3-0.12,1.93,0.03c0,0.52,0,1.03,0,1.55c-0.52-0.12-1.1-0.24-1.6,0
		c-0.6,0.29-0.93,0.97-0.93,1.62c-0.03,0.65,0.18,1.37,0.76,1.73c0.53,0.35,1.2,0.27,1.78,0.11c0,0.52,0,1.03,0,1.55
		c-0.76,0.22-1.6,0.19-2.35-0.08c-0.9-0.34-1.61-1.11-1.88-2.03c-0.21-0.7-0.23-1.45-0.07-2.16
		C54.74,115.41,55.7,114.48,56.83,114.23L56.83,114.23z M61.49,114.15c0.78-0.09,1.63,0.03,2.26,0.53c0.61,0.47,0.91,1.23,1.02,1.98
		c0.11,0.81,0.08,1.66-0.17,2.45c-0.21,0.67-0.66,1.29-1.31,1.59c-0.66,0.31-1.42,0.33-2.12,0.17c-0.65-0.15-1.22-0.57-1.54-1.15
		c-0.44-0.78-0.53-1.71-0.49-2.59c0.04-0.76,0.23-1.55,0.74-2.14C60.28,114.51,60.88,114.22,61.49,114.15L61.49,114.15z
		 M61.73,115.63c-0.34,0.08-0.52,0.42-0.61,0.73c-0.17,0.62-0.14,1.26-0.1,1.89c0.04,0.34,0.08,0.72,0.32,0.98
		c0.32,0.37,0.97,0.32,1.27-0.06c0.2-0.24,0.25-0.56,0.29-0.85c0.06-0.53,0.08-1.07,0-1.6c-0.06-0.32-0.14-0.65-0.38-0.89
		C62.32,115.62,62.01,115.56,61.73,115.63L61.73,115.63z M92.33,114.25c0.66-0.17,1.36-0.15,2.03-0.01c0.02,0.52,0,1.04,0.01,1.55
		c-0.51-0.12-1.07-0.24-1.56-0.02c-0.57,0.26-0.92,0.87-0.96,1.48c-0.07,0.69,0.12,1.47,0.72,1.87c0.53,0.36,1.22,0.29,1.8,0.12
		c-0.01,0.52,0.02,1.04-0.01,1.56c-0.82,0.21-1.7,0.18-2.48-0.15c-0.85-0.37-1.52-1.14-1.76-2.04c-0.19-0.69-0.21-1.43-0.04-2.12
		C90.35,115.42,91.25,114.53,92.33,114.25L92.33,114.25z M65.8,114.3c0.74,0,1.48,0,2.21,0c0.27,1.2,0.52,2.4,0.74,3.6
		c0.21-1.21,0.49-2.41,0.78-3.6c0.76,0,1.51,0,2.27,0c0.29,2.17,0.59,4.33,0.88,6.5c-0.58,0-1.16,0-1.74,0
		c-0.16-1.48-0.3-2.97-0.47-4.45c-0.35,1.49-0.72,2.97-1.08,4.45c-0.39,0-0.79,0-1.18,0c-0.38-1.49-0.75-2.97-1.13-4.46
		c-0.15,1.49-0.3,2.97-0.45,4.46c-0.55,0-1.11,0-1.66,0C65.24,118.63,65.52,116.47,65.8,114.3L65.8,114.3z M73.74,114.3
		c0.74,0,1.48,0,2.22,0c0.27,1.19,0.52,2.39,0.74,3.6c0.21-1.21,0.49-2.4,0.78-3.6c0.75,0,1.51,0,2.26,0
		c0.29,2.17,0.59,4.33,0.88,6.5c-0.58,0-1.16,0-1.73,0c-0.16-1.48-0.31-2.97-0.47-4.45c-0.36,1.48-0.72,2.97-1.08,4.45
		c-0.39,0-0.79,0-1.18,0c-0.38-1.49-0.76-2.97-1.13-4.46c-0.15,1.49-0.3,2.97-0.45,4.46c-0.55,0-1.11,0-1.66,0
		C73.19,118.63,73.46,116.47,73.74,114.3L73.74,114.3z M81.11,114.32c1.18-0.03,2.37,0,3.56-0.01c0,0.46,0,0.92,0,1.38
		c-0.6,0.01-1.2,0-1.79,0c0,0.4,0,0.79,0,1.19c0.52,0,1.04,0,1.55,0c0,0.45,0,0.9,0,1.35c-0.52,0-1.04,0-1.55,0c0,0.4,0,0.79,0,1.19
		c0.6,0,1.2,0,1.8,0c0,0.46,0,0.92,0,1.38c-1.19,0-2.37,0-3.56,0C81.11,118.65,81.13,116.49,81.11,114.32L81.11,114.32z
		 M85.18,114.3c0.74,0,1.48-0.01,2.23,0c0.7,0.02,1.44,0.2,1.96,0.69c0.47,0.44,0.63,1.15,0.45,1.76c-0.14,0.5-0.52,0.9-0.98,1.12
		c0.46,0.98,0.93,1.95,1.4,2.92c-0.62,0-1.23,0-1.85,0c-0.48-0.99-0.95-2-1.44-2.99c-0.01,1,0,1.99-0.01,2.99c-0.59,0-1.17,0-1.76,0
		C85.18,118.63,85.18,116.47,85.18,114.3L85.18,114.3z M86.93,115.55c0,0.52,0,1.03,0,1.55c0.32-0.02,0.66-0.03,0.93-0.23
		c0.31-0.22,0.28-0.7,0.08-0.99C87.7,115.59,87.28,115.58,86.93,115.55L86.93,115.55z M94.86,114.3c1.18,0,2.37,0,3.55,0
		c0,0.46,0,0.92,0,1.39c-0.6,0-1.2,0-1.8,0c0,0.4,0,0.79,0,1.19c0.52,0,1.04,0,1.55,0c0,0.45,0,0.9,0,1.35c-0.52,0-1.03,0-1.55,0
		c0,0.4,0,0.79,0,1.19c0.6,0,1.21,0,1.81,0c0,0.46,0,0.92,0,1.38c-1.18,0-2.37,0-3.56,0C94.86,118.63,94.86,116.47,94.86,114.3
		L94.86,114.3z"/>
</g>
<g>
	<g>
		<g>
			<path class="st4" d="M71.6,82.83c-9.37,0-18.19-3.65-24.82-10.28S36.5,57.1,36.5,47.73s3.65-18.19,10.28-24.82
				c6.63-6.63,15.44-10.28,24.82-10.28s18.19,3.65,24.82,10.28c6.63,6.63,10.28,15.44,10.28,24.82s-3.65,18.19-10.28,24.82
				S80.97,82.83,71.6,82.83z M71.6,24.29c-12.92,0-23.43,10.51-23.43,23.43S58.67,71.16,71.6,71.16s23.43-10.51,23.43-23.43
				S84.52,24.29,71.6,24.29z"/>
		</g>
		<g>
			<path class="st4" d="M27.09,98.02c-1.48,0-2.96-0.56-4.09-1.69c-2.26-2.26-2.26-5.92,0-8.18l21.38-21.38
				c2.26-2.26,10.44,5.92,8.18,8.18L31.18,96.32C30.05,97.45,28.57,98.02,27.09,98.02z"/>
		</g>
	</g>
	<polygon class="st4" points="88.89,39.04 82.97,33.12 65,51.09 59.25,45.34 53.33,51.26 65,62.86 	"/>
</g>
</svg>
